<?xml version="1.0" encoding="UTF-8" standalone="no"?>
<!-- Created with Inkscape (http://www.inkscape.org/) -->

<svg
   xmlns:dc="http://purl.org/dc/elements/1.1/"
   xmlns:cc="http://creativecommons.org/ns#"
   xmlns:rdf="http://www.w3.org/1999/02/22-rdf-syntax-ns#"
   xmlns:svg="http://www.w3.org/2000/svg"
   xmlns="http://www.w3.org/2000/svg"
   xmlns:xlink="http://www.w3.org/1999/xlink"
   xmlns:sodipodi="http://sodipodi.sourceforge.net/DTD/sodipodi-0.dtd"
   xmlns:inkscape="http://www.inkscape.org/namespaces/inkscape"
   width="538.67755mm"
   height="166.91443mm"
   viewBox="0 0 1908.6983 591.42907"
   id="svg2"
   version="1.1"
   inkscape:version="0.91 r13725"
   inkscape:export-filename="C:\Users\Victoria\Documents\Wingtip\logo.png"
   inkscape:export-xdpi="9.1304274"
   inkscape:export-ydpi="9.1304274"
   style="shape-rendering:crispEdges"
   sodipodi:docname="wingtip.svg">
  <defs
     id="defs4">
    <inkscape:path-effect
       effect="spiro"
       id="path-effect5348"
       is_visible="true" />
    <inkscape:path-effect
       effect="spiro"
       id="path-effect5344"
       is_visible="true" />
    <inkscape:path-effect
       effect="spiro"
       id="path-effect5340"
       is_visible="true" />
    <inkscape:path-effect
       effect="spiro"
       id="path-effect5336"
       is_visible="true" />
    <inkscape:path-effect
       effect="spiro"
       id="path-effect5332"
       is_visible="true" />
    <inkscape:path-effect
       effect="spiro"
       id="path-effect5328"
       is_visible="true" />
    <inkscape:path-effect
       effect="spiro"
       id="path-effect5251"
       is_visible="true" />
    <inkscape:path-effect
       effect="spiro"
       id="path-effect3567"
       is_visible="true" />
    <inkscape:path-effect
       effect="spiro"
       id="path-effect3405"
       is_visible="true" />
    <inkscape:path-effect
       effect="skeletal"
       id="path-effect3401"
       is_visible="true"
       pattern="m -7.3242187e-4,313.26772 c 0,-2.76 2.24000002187,-5 5.00000002187,-5 2.76,0 5,2.24 5,5 0,2.76 -2.24,5 -5,5 -2.76,0 -5.00000002187,-2.24 -5.00000002187,-5 z"
       copytype="single_stretched"
       prop_scale="1"
       scale_y_rel="false"
       spacing="0"
       normal_offset="0"
       tang_offset="0"
       prop_units="false"
       vertical_pattern="false"
       fuse_tolerance="0" />
    <inkscape:path-effect
       effect="spiro"
       id="path-effect3399"
       is_visible="true" />
    <inkscape:path-effect
       effect="skeletal"
       id="path-effect3395"
       is_visible="true"
       pattern="m -7.3242187e-4,313.26772 c 0,-2.76 2.24000002187,-5 5.00000002187,-5 2.76,0 5,2.24 5,5 0,2.76 -2.24,5 -5,5 -2.76,0 -5.00000002187,-2.24 -5.00000002187,-5 z"
       copytype="single_stretched"
       prop_scale="1"
       scale_y_rel="false"
       spacing="0"
       normal_offset="0"
       tang_offset="0"
       prop_units="false"
       vertical_pattern="false"
       fuse_tolerance="0" />
    <inkscape:path-effect
       effect="skeletal"
       id="path-effect3391"
       is_visible="true"
       pattern="m -7.3242187e-4,313.26772 c 0,-2.76 2.24000002187,-5 5.00000002187,-5 2.76,0 5,2.24 5,5 0,2.76 -2.24,5 -5,5 -2.76,0 -5.00000002187,-2.24 -5.00000002187,-5 z"
       copytype="single_stretched"
       prop_scale="1"
       scale_y_rel="false"
       spacing="0"
       normal_offset="0"
       tang_offset="0"
       prop_units="false"
       vertical_pattern="false"
       fuse_tolerance="0" />
    <inkscape:path-effect
       effect="skeletal"
       id="path-effect3387"
       is_visible="true"
       pattern="m -7.3242187e-4,308.26772 1.00000000187,0"
       copytype="single_stretched"
       prop_scale="1"
       scale_y_rel="false"
       spacing="0"
       normal_offset="0"
       tang_offset="0"
       prop_units="false"
       vertical_pattern="false"
       fuse_tolerance="0" />
    <inkscape:path-effect
       effect="spiro"
       id="path-effect3385"
       is_visible="true" />
    <inkscape:path-effect
       effect="skeletal"
       id="path-effect3379"
       is_visible="true"
       pattern="m -7.3242187e-4,313.26772 c 0,-2.76 2.24000002187,-5 5.00000002187,-5 2.76,0 5,2.24 5,5 0,2.76 -2.24,5 -5,5 -2.76,0 -5.00000002187,-2.24 -5.00000002187,-5 z"
       copytype="single_stretched"
       prop_scale="1"
       scale_y_rel="false"
       spacing="0"
       normal_offset="0"
       tang_offset="0"
       prop_units="false"
       vertical_pattern="false"
       fuse_tolerance="0" />
  </defs>
  <sodipodi:namedview
     id="base"
     pagecolor="#70ffff"
     bordercolor="#666666"
     borderopacity="1.0"
     inkscape:pageopacity="0.02352941"
     inkscape:pageshadow="2"
     inkscape:zoom="0.1746582"
     inkscape:cx="-158.15359"
     inkscape:cy="298.05073"
     inkscape:document-units="px"
     inkscape:current-layer="layer1"
     showgrid="false"
     inkscape:window-width="1280"
     inkscape:window-height="660"
     inkscape:window-x="-8"
     inkscape:window-y="-8"
     inkscape:window-maximized="1"
     width="298mm"
     showborder="true"
     fit-margin-top="0"
     fit-margin-left="20"
     fit-margin-right="0"
     fit-margin-bottom="0" />
  <metadata
     id="metadata7">
    <rdf:RDF>
      <cc:Work
         rdf:about="">
        <dc:format>image/svg+xml</dc:format>
        <dc:type
           rdf:resource="http://purl.org/dc/dcmitype/StillImage" />
        <dc:title></dc:title>
      </cc:Work>
    </rdf:RDF>
  </metadata>
  <g
     inkscape:label="Layer 1"
     inkscape:groupmode="layer"
     id="layer1"
     transform="translate(33.856855,-378.39164)"
     style="display:inline">
    <path
       style="fill:#ffffff"
       d="m 1451.7512,509.91799 c -0.2282,-0.0338 -0.416,-0.0335 -0.5618,0.003 -3.7587,0.93339 -17.7478,25.79829 -17.0115,30.23724 0.233,1.40412 8.7535,12.82282 18.9345,25.37397 10.181,12.55115 19.4124,23.97718 20.5143,25.39104 1.102,1.41386 5.9464,7.3504 10.7653,13.19225 9.9097,12.01308 20.4106,24.94904 27.4317,33.79311 l 4.7571,5.9918 -10.9923,10.47964 c -6.0457,5.7639 -12.8259,12.16179 -15.0677,14.21675 -2.2417,2.05499 -5.4452,5.29422 -7.1187,7.19857 l -3.0434,3.46146 -17.1906,-4.85518 c -9.4552,-2.67037 -22.3458,-6.43049 -28.6451,-8.35573 -6.2993,-1.92524 -12.1048,-3.18952 -12.9017,-2.81099 -1.8546,0.88093 -13.7899,20.41471 -14.2799,23.37105 -0.575,3.4694 4.2716,7.52711 19.9242,16.68374 7.9385,4.64394 14.7362,8.92326 15.1054,9.50924 0.3692,0.58603 -0.7098,2.93539 -2.3971,5.22028 -4.3485,5.88826 -6.7219,12.60003 -6.5528,18.53094 0.2642,9.26893 12.9961,14.08625 25.3108,9.57635 2.4093,-0.8823 4.6915,-1.55368 5.0724,-1.49055 0.3809,0.0631 1.7494,8.97169 3.0416,19.7959 1.3228,11.0805 3.4408,21.17301 4.8473,23.09565 1.3738,1.87816 3.169,3.52571 3.9876,3.66139 2.5854,0.42849 27.8097,-11.57439 29.0207,-13.80925 0.6368,-1.17499 1.0035,-14.82679 0.815,-30.33879 -0.1885,-15.512 -0.038,-28.40833 0.3337,-28.65728 5.3515,-3.58322 39.9834,-21.88211 41.072,-21.70168 0.816,0.13524 2.6891,2.90204 4.162,6.1482 5.4816,12.08052 23.7309,48.67857 38.0596,76.3273 1.3458,2.59685 5.4129,10.79476 9.0377,18.21709 3.6247,7.42232 7.7288,13.68675 9.1202,13.92261 3.0482,0.51535 25.3858,-4.28294 28.3729,-6.09447 4.0639,-2.46463 3.9689,-3.26101 -5.24,-44.0974 -0.6633,-2.94112 -1.9392,-8.94041 -2.8355,-13.33114 -0.8965,-4.39074 -2.5101,-11.98661 -3.585,-16.88033 -3.2807,-14.93716 -4.8855,-22.62018 -7.2362,-34.63772 -1.2393,-6.33565 -3.9897,-19.44961 -6.1123,-29.14198 l -3.8604,-17.6226 9.6386,-7.99791 c 35.7553,-29.67063 42.7083,-35.92997 46.8064,-42.13467 9.8219,-14.87098 10.7968,-28.28611 2.8721,-39.55557 -5.3227,-7.5692 -11.9971,-10.98599 -20.709,-10.60402 -7.3211,0.32101 -17.7788,4.21557 -22.64,8.43106 -2.0994,1.82055 -4.0567,2.92988 -4.3487,2.4663 -0.2921,-0.46358 -10.56,7.50377 -22.8177,17.70604 l -22.2856,18.55074 -7.9096,-5.65847 c -8.0567,-5.76365 -10.9946,-7.93521 -28.9224,-21.37412 -5.5908,-4.19096 -14.161,-10.40435 -19.0443,-13.80786 -11.4034,-7.9479 -17.1265,-12.12801 -31.2614,-22.82984 -18.4146,-13.94221 -31.0095,-22.25686 -34.4324,-22.76489 z m 228.4566,189.06267 c -0.2429,0.0199 -0.5573,0.92942 -0.8188,2.50706 -0.3803,2.29474 -0.1997,3.29047 0.402,2.21129 0.6015,-1.07919 0.9128,-2.95745 0.6916,-4.173 -0.069,-0.37988 -0.1645,-0.5544 -0.2748,-0.54535 z"
       id="path3355"
       inkscape:connector-curvature="0"
       inkscape:transform-center-x="25.714285"
       inkscape:transform-center-y="-8.5714227" />
    <text
       xml:space="preserve"
       style="font-style:normal;font-weight:normal;font-size:40.83978271px;line-height:125%;font-family:sans-serif;letter-spacing:0px;word-spacing:0px;fill:#ffffff;fill-opacity:1;stroke:none;stroke-width:1px;stroke-linecap:butt;stroke-linejoin:miter;stroke-opacity:1"
       x="28.833941"
       y="657.58636"
       id="text3367"
       sodipodi:linespacing="125%"
       transform="scale(0.98824654,1.0118933)"><tspan
         sodipodi:role="line"
         id="tspan3369"
         x="28.833941"
         y="657.58636"
         style="font-style:normal;font-variant:normal;font-weight:normal;font-stretch:normal;font-size:183.77902222px;font-family:'Century Gothic';-inkscape-font-specification:'Century Gothic';fill:#ffffff">Wingtip English</tspan></text>
    <text
       xml:space="preserve"
       style="font-style:normal;font-weight:normal;font-size:39.25653458px;line-height:125%;font-family:sans-serif;letter-spacing:0px;word-spacing:0px;fill:#000000;fill-opacity:1;stroke:none;stroke-width:1px;stroke-linecap:butt;stroke-linejoin:miter;stroke-opacity:1"
       id="text4371"
       sodipodi:linespacing="125%"
       inkscape:transform-center-x="28.618033"
       inkscape:transform-center-y="-96.628498"
       x="-10.40182"
       y="-15.187862"
       transform="matrix(1.099705,-0.03210253,0.028626,0.98061274,-158.32598,45.38436)"><textPath
         xlink:href="#path5249"
         id="textPath5254"><tspan
   style="font-style:normal;font-variant:normal;font-weight:normal;font-stretch:normal;font-size:78.51306915px;font-family:Calibri;-inkscape-font-specification:Calibri;fill:#ffffff;stroke:none"
   id="tspan4373">...language skills for the travel industry</tspan></textPath></text>
    <path
       style="fill:none;fill-rule:evenodd;stroke:none;stroke-width:1px;stroke-linecap:butt;stroke-linejoin:miter;stroke-opacity:1"
       d="m 191.42784,809.50506 c 104.21371,-55.08741 226.41041,-75.45353 342.85714,-57.14286 69.8587,10.98493 136.86488,35.28342 205.71429,51.42858 14.18716,3.32688 28.46181,6.3091 42.85714,8.57142 30.24854,4.75375 60.89238,6.31016 91.42857,8.57143 82.84069,6.13452 166.34202,17.48412 248.57142,5.71429 11.4698,-1.64172 22.8703,-3.72936 34.2857,-5.71429 75.9428,-13.20506 153.3377,-22.05134 225.7143,-48.57143 17.292,-6.33609 34.5034,-13.82952 48.5715,-25.71428 9.3578,-7.90554 17.4149,-17.79749 28.5714,-22.85714 1.9433,-0.8813 3.9796,-1.61474 5.7143,-2.85715 1.7892,-1.28138 3.1892,-3.07018 4.131,-5.05911 0.9419,-1.98893 1.436,-4.17372 1.5833,-6.36946 0.064,-0.95095 0.064,-1.90619 0,-2.85714"
       id="path5249"
       inkscape:connector-curvature="0" />
    <path
       style="opacity:0.75;fill:#ffffff;fill-rule:evenodd;stroke:none;stroke-width:1px;stroke-linecap:butt;stroke-linejoin:miter;stroke-opacity:1"
       d="m 1139.9993,420.93363 c 13.2214,8.46757 29.0368,12.82231 44.7291,12.31611 15.6923,-0.5062 31.1941,-5.87118 43.8423,-15.17325 13.4409,-9.88504 23.5803,-23.9516 37.8063,-32.66891 7.113,-4.35865 15.3192,-7.29071 23.6562,-6.99552 4.1685,0.1476 8.3254,1.11011 12.056,2.97572 3.7307,1.86562 7.024,4.64733 9.3387,8.11728 3.3631,5.04163 4.5439,11.26081 7.6972,16.43621 1.5766,2.5877 3.6964,4.9274 6.4113,6.27327 1.3575,0.67294 2.8511,1.08645 4.3654,1.13583 1.5143,0.0494 3.0481,-0.27198 4.3832,-0.98817 1.195,-0.641 2.2064,-1.57854 3.1112,-2.58856 0.9048,-1.01001 1.7156,-2.10045 2.6031,-3.12572 5.1388,-5.93675 13.0225,-9.50106 20.8622,-9.06276 3.9198,0.21915 7.788,1.40646 11.1293,3.46763 3.3414,2.06118 6.1459,4.99628 8.0085,8.45227 1.9253,3.57236 2.8211,7.60266 3.4755,11.60772 0.6544,4.00506 1.0928,8.06116 2.1963,11.96641 1.1035,3.90525 2.9382,7.71574 5.9455,10.4406 1.5037,1.36244 3.2878,2.43145 5.2325,3.01045 1.9447,0.579 4.0511,0.65669 6.0073,0.11768 2.0598,-0.56755 3.8706,-1.77756 5.7143,-2.85715 6.2448,-3.6567 13.3287,-5.98253 20.56,-6.26027 7.2313,-0.27775 14.5997,1.55355 20.611,5.58273 6.0112,4.02917 10.5754,10.30639 12.1113,17.37817 1.536,7.07177 -0.1039,14.86144 -4.7108,20.44223 -3.2344,3.91808 -7.748,6.63786 -12.5315,8.34981 -4.7834,1.71195 -9.8534,2.47223 -14.9094,2.97186 -10.112,0.99926 -20.7061,1.09636 -29.702,5.82119 -2.8517,1.49778 -5.4544,3.42269 -8.2087,5.09286 -2.7542,1.67018 -5.7345,3.10782 -8.9342,3.47857 -2.9853,0.34591 -6.0387,-0.26589 -8.7822,-1.49286 -2.7434,-1.22697 -5.1907,-3.05124 -7.3522,-5.13915 -4.3232,-4.17582 -7.5095,-9.36172 -11.2558,-14.06199 -1.8731,-2.35013 -3.9017,-4.59414 -6.2382,-6.48421 -2.3366,-1.89008 -4.9951,-3.42306 -7.8882,-4.23637 -2.8932,-0.81332 -6.031,-0.88081 -8.8832,0.0659 -2.8523,0.94671 -5.3889,2.95143 -6.743,5.63438 -0.8877,1.75888 -1.2506,3.72965 -1.5585,5.67565 -0.3078,1.946 -0.5763,3.91993 -1.2987,5.75292 -1.4452,3.66713 -4.6673,6.48486 -8.3518,7.88525 -3.6845,1.40038 -7.7856,1.47142 -11.6482,0.68618 -6.8805,-1.39874 -12.9768,-5.37605 -18.3034,-9.95043 -5.3267,-4.57438 -10.0589,-9.80781 -15.4009,-14.36432 -5.3419,-4.55652 -11.4701,-8.49533 -18.3643,-9.82487 -3.4471,-0.66477 -7.0471,-0.65249 -10.4402,0.24826 -3.3931,0.90075 -6.5701,2.7115 -8.9197,5.31993 -1.8634,2.06867 -3.1667,4.57095 -4.406,7.06404 -1.2394,2.49308 -2.4493,5.02939 -4.1655,7.22168 -2.0557,2.62589 -4.7886,4.67849 -7.7716,6.16936 -2.983,1.49087 -6.2156,2.43607 -9.4913,3.06139 -6.5514,1.25064 -13.2791,1.24215 -19.8799,2.19782 -4.3236,0.62597 -8.5903,1.66525 -12.944,2.02678 -4.3537,0.36153 -8.8995,-0.001 -12.7703,-2.02678 -3.3154,-1.73491 -5.9058,-4.55627 -8.4685,-7.28296 -2.5627,-2.72669 -5.2574,-5.47763 -8.6744,-7.00276 -4.4207,-1.9731 -9.5915,-1.64441 -14.1967,-0.15186 -4.6052,1.49255 -8.7723,4.06121 -12.9213,6.55553 -4.149,2.49431 -8.3926,4.96444 -13.0662,6.22687 -2.3367,0.63121 -4.7695,0.9512 -7.185,0.7954 -2.4155,-0.1558 -4.8147,-0.79679 -6.9165,-1.99736 -3.2725,-1.86929 -5.6357,-4.94855 -8.118,-7.78438 -1.2411,-1.41792 -2.5388,-2.79846 -4.0237,-3.95857 -1.4849,-1.16012 -3.1698,-2.09855 -5.0011,-2.54277 -2.399,-0.58194 -4.9362,-0.29122 -7.318,0.35756 -2.3818,0.64878 -4.6518,1.6449 -6.9677,2.49958 -7.5548,2.78808 -15.9329,4.05599 -23.6866,1.88135 -3.8768,-1.08732 -7.5364,-3.03755 -10.4487,-5.8179 -2.9123,-2.78034 -5.0531,-6.40538 -5.8647,-10.34916 -0.7708,-3.74592 -0.3448,-7.61973 0,-11.42857 0.342,-3.7779 0.6095,-7.60696 1.7941,-11.21059 0.5923,-1.80182 1.4154,-3.53766 2.54,-5.06495 1.1246,-1.5273 2.5579,-2.84295 4.2373,-3.72446 1.9353,-1.01585 4.1539,-1.43139 6.3389,-1.37588 2.1851,0.0555 4.341,0.56828 6.3927,1.32181 4.1035,1.50706 7.7863,3.95258 11.7062,5.88755 3.9199,1.93497 8.3065,3.3831 12.6196,2.6708 2.1565,-0.35615 4.2446,-1.27006 5.8467,-2.75685 1.6022,-1.48679 2.6876,-3.56515 2.8102,-5.74743 0.1108,-1.97269 -0.5417,-3.90215 -1.244,-5.74893 -0.7023,-1.84678 -1.4724,-3.70886 -1.6132,-5.67964 -0.1301,-1.82048 0.2945,-3.66224 1.1085,-5.29578 0.814,-1.63354 2.0082,-3.06313 3.3987,-4.24525 2.7811,-2.36423 6.2762,-3.71612 9.7785,-4.74469 19.0749,-5.60197 40.5511,-2.38054 57.1429,8.57143 z"
       id="path5326"
       inkscape:path-effect="#path-effect5328"
       inkscape:original-d="m 1139.9993,420.93363 c 45.5718,-66.14789 73.4062,-2.85714 88.5714,-2.85714 2.2735,0 65.8041,-45.62454 82.8572,-28.57143 1.5605,1.56053 20.6735,22.85714 22.8571,22.85714 3.2065,0 4.9308,-4.93077 5.7143,-5.71428 5.2329,-5.23292 36.6902,1.20225 40,2.85714 25.774,12.88699 14.7872,29.07289 22.8571,37.14286 2.1289,2.12885 2.7732,-2.85715 5.7143,-2.85715 12.5994,0 58.7827,16.72038 48.5715,37.14286 -20.6344,41.26863 -42.0582,9.6005 -57.1429,17.14286 -5.8919,2.94593 -11.3817,8.57143 -17.1429,8.57143 -36.6678,0 -37.507,-6.07847 -57.1428,-25.71429 -3.2487,-3.24871 -0.3613,8.9327 -2.8572,11.42857 -3.2349,3.23499 -12.8163,8.57143 -20,8.57143 -36.4213,0 -54.1769,-11.31984 -71.4285,-28.57143 -3.9268,-3.92676 -6.088,9.31871 -8.5715,14.28572 -5.7924,11.58484 -24.412,11.42857 -37.1428,11.42857 -4.0924,0 -23.1097,2.60459 -25.7143,0 -0.8091,-0.80914 -14.204,-17.22456 -17.1429,-14.28572 -11.2746,11.27469 -29.9063,23.61828 -54.2857,11.42858 -1.734,-0.86702 -21.2505,-14.28572 -17.1428,-14.28572 0.3028,0 -8.1885,2.85714 -14.2857,2.85714 -13.4558,0 -33.0086,-7.29429 -40,-14.28571 -3.8096,-3.80952 -0.096,-11.33258 0,-11.42857 1.5354,-1.5354 3.4041,-14.83274 8.5714,-20 5.0316,-5.03158 45.7143,-7.42729 45.7143,0 0,1.36716 -6.0336,-8.25218 -2.8572,-11.42857 3.0047,-3.00472 11.281,-11.281 14.2857,-14.28572 12.6492,-12.64918 46.9042,0.89242 57.1429,8.57143 z"
       inkscape:connector-curvature="0" />
    <path
       style="opacity:0.72899996;fill:#ffffff;fill-rule:evenodd;stroke:none;stroke-width:1px;stroke-linecap:butt;stroke-linejoin:miter;stroke-opacity:1"
       d="m 1542.8562,900.93363 c 3.8623,-7.5894 11.5682,-13.09357 20,-14.28571 8.2182,-1.16194 16.4378,1.54339 24.2913,4.22897 7.8534,2.68559 16.0516,5.42841 24.2802,4.34246 4.5657,-0.60254 8.938,-2.38535 12.7905,-4.9087 3.8524,-2.52335 7.1976,-5.77458 10.0666,-9.37702 4.0536,-5.08994 7.1583,-10.85271 10.5617,-16.39856 3.4034,-5.54584 7.2001,-10.98332 12.2955,-15.03001 4.0855,-3.24463 9.0714,-5.54189 14.2857,-5.71429 4.8031,-0.15881 9.5344,1.48642 13.6627,3.9464 4.1284,2.45999 7.7228,5.71084 11.2016,9.02646 3.4787,3.31563 6.887,6.73151 10.7445,9.5976 3.8575,2.86609 8.2263,5.18705 12.9626,6.00097 6.1751,1.06118 12.4612,-0.48864 18.5702,-1.88091 6.109,-1.39227 12.5295,-2.63088 18.5727,-0.97623 3.4878,0.95498 6.6665,2.8396 9.4904,5.09844 2.8239,2.25884 5.3209,4.89389 7.7915,7.53461 2.4705,2.64072 4.9328,5.30429 7.7003,7.63189 2.7675,2.3276 5.8669,4.32404 9.3035,5.44935 4.5541,1.49121 9.4698,1.3891 14.2419,0.95294 4.7721,-0.43615 9.5434,-1.19142 14.3295,-0.95294 7.1765,0.35758 14.1122,2.95792 20.2827,6.63967 6.1705,3.68176 11.6391,8.42367 16.8602,13.36033 5.9663,5.64127 11.7761,11.7443 15.0879,19.25782 1.6558,3.75676 2.6513,7.83639 2.6112,11.94169 -0.04,4.10531 -1.1458,8.23521 -3.4134,11.65763 -3.1687,4.78244 -8.5802,7.97122 -14.2857,8.57143 -6.5089,0.68473 -12.9095,-1.80498 -18.8298,-4.5951 -5.9203,-2.79012 -11.8246,-5.97692 -18.3131,-6.83347 -6.809,-0.89885 -13.6801,0.85383 -20.2029,3.00411 -6.5227,2.15028 -12.9802,4.73087 -19.7971,5.56731 -8.5744,1.05208 -17.2097,-0.71062 -25.7175,-2.20855 -8.5079,-1.49793 -17.3265,-2.7285 -25.7111,-0.64859 -5.3392,1.32446 -10.2541,3.93539 -15.3564,5.99176 -5.1022,2.05636 -10.6631,3.58166 -16.0721,2.57967 -4.4584,-0.82589 -8.4353,-3.3029 -12.0344,-6.06074 -3.5991,-2.75784 -6.9576,-5.85447 -10.8228,-8.22497 -5.8423,-3.58299 -12.6491,-5.37075 -19.4705,-6.03263 -6.8214,-0.66188 -13.699,-0.24246 -20.5295,0.31834 -39.2111,3.21934 -77.9312,11.07212 -117.1428,14.28571 -10.4862,0.85939 -21.0104,1.38737 -31.4286,2.85715 -10.4462,1.47373 -20.9305,3.89854 -31.4286,2.85714 -3.9464,-0.39148 -7.8728,-1.28407 -11.4575,-2.98037 -3.5846,-1.6963 -6.8221,-4.22583 -9.0441,-7.51066 -2.222,-3.28483 -3.3752,-7.34914 -2.8599,-11.2813 0.2576,-1.96608 0.9263,-3.88219 1.987,-5.55752 1.0607,-1.67534 2.5154,-3.10572 4.2317,-4.09872 2.3114,-1.33729 5.029,-1.85186 7.6994,-1.85364 2.6704,-0.002 5.3158,0.48516 7.9283,1.03833 2.6125,0.55316 5.2182,1.17562 7.8743,1.45145 2.6561,0.27583 5.3885,0.19428 7.9265,-0.63614 2.2925,-0.75008 4.3566,-2.08853 6.1965,-3.64832 1.8399,-1.55978 3.4738,-3.34431 5.116,-5.111 1.6422,-1.76668 3.3053,-3.52743 5.1925,-5.02964 1.8871,-1.5022 4.0178,-2.74682 6.3522,-3.3539 3.2936,-0.85652 6.7888,-0.40113 10.0967,0.39813 3.3079,0.79925 6.5404,1.93736 9.9033,2.45901 7.1037,1.10193 14.6162,-0.71624 20.43,-4.94443 5.8138,-4.22819 9.8581,-10.81505 10.9985,-17.91271 z"
       id="path5330"
       inkscape:path-effect="#path-effect5332"
       inkscape:original-d="m 1542.8562,900.93363 c 9.5149,-7.94848 14.9916,-9.27728 20,-14.28571 13.4279,-13.42787 38.1387,19.00419 48.5715,8.57143 6.1427,-6.14273 15.4565,-6.88515 22.8571,-14.28572 7.1063,-7.10628 13.3934,-21.96483 22.8572,-31.42857 2.3902,-2.3902 11.5846,-3.01326 14.2857,-5.71429 12.9378,-12.93784 38.0902,18.09025 48.5714,28.57143 5.8511,5.85106 36.9565,-2.85714 37.1429,-2.85714 9.787,0 26.8877,18.31631 34.2857,25.71429 4.5798,4.57981 22.5457,-3.01284 28.5714,0 12.3653,6.18262 28.8846,11.7417 37.1429,20 7.7053,7.70536 25.5734,31.56939 14.2857,42.85714 -2.4402,2.44019 -10.715,6.78607 -14.2857,8.57143 -8.3472,4.17355 -29.0964,-7.40535 -37.1429,-11.42857 -9.4412,-4.72063 -36.2063,4.77768 -40,8.57142 -7.147,7.14699 -42.7719,-2.85714 -51.4286,-2.85714 -8.5958,0 -24.9059,15.09407 -31.4285,8.57143 -6.2803,-6.28021 -17.3753,-8.80386 -22.8572,-14.28571 -1.9042,-1.90426 -33.5621,-12.15221 -40,-5.71429 -36.2643,36.2643 -77.6248,-5.47328 -117.1428,14.28571 -9.7039,4.85193 -22.8492,-1.43258 -31.4286,2.85715 -3.0133,1.50664 -27.3315,6.95424 -31.4286,2.85714 -9.3814,-9.38139 -47.0598,-16.47007 -17.1428,-31.42857 10.4123,-5.20618 20.6635,5.38251 31.4285,0 9.0378,-4.51891 17.0811,-11.36682 22.8572,-17.14286 0.8162,-0.81619 15.7556,4.97934 20,2.85714 13.6667,-6.83337 18.6364,-15.18186 31.4285,-22.85714 z"
       inkscape:connector-curvature="0" />
    <text
       xml:space="preserve"
       style="font-style:normal;font-weight:normal;font-size:40px;line-height:125%;font-family:sans-serif;letter-spacing:0px;word-spacing:0px;fill:#000000;fill-opacity:1;stroke:none;stroke-width:1px;stroke-linecap:butt;stroke-linejoin:miter;stroke-opacity:1"
       x="-242.8373"
       y="730.78241"
       id="text4158"
       sodipodi:linespacing="125%"><tspan
         sodipodi:role="line"
         id="tspan4160"
         x="-242.8373"
         y="730.78241" /></text>
  </g>
</svg>
